<svg id="Capa_1" enable-background="new 0 0 512 512" height="512" viewBox="0 0 512 512" width="512" xmlns="http://www.w3.org/2000/svg" xmlns:xlink="http://www.w3.org/1999/xlink"><linearGradient id="SVGID_1_" gradientUnits="userSpaceOnUse" x1="256" x2="256" y1="512" y2="0"><stop offset="0" stop-color="#fd3a84"/><stop offset="1" stop-color="#ffa68d"/></linearGradient><g><g><path d="m256 0c-140.959 0-256 115.049-256 256 0 140.959 115.049 256 256 256 140.959 0 256-115.05 256-256 0-140.959-115.049-256-256-256zm0 482c-124.617 0-226-101.383-226-226s101.383-226 226-226 226 101.383 226 226-101.383 226-226 226zm75-361c-32.923 0-58.18 18.506-75 46.058-16.817-27.547-42.072-46.058-75-46.058-53.252 0-90 45.908-90 99.545 0 64.594 57.624 110.966 116.19 162.298 12.376 10.848 25.174 22.065 38.775 34.306 2.853 2.568 6.444 3.851 10.035 3.851s7.182-1.283 10.035-3.851c13.601-12.241 26.398-23.458 38.775-34.306 63.286-55.469 116.19-99.611 116.19-162.298 0-53.739-36.839-99.545-90-99.545zm-45.964 239.283c-9.375 8.216-18.988 16.643-29.036 25.587-10.047-8.944-19.661-17.371-29.036-25.587-66.079-57.918-105.964-92.877-105.964-139.738 0-39.647 25.794-69.545 60-69.545 32.707 0 53.643 31.628 60.516 56.399 1.763 6.548 7.701 11.101 14.484 11.101 6.796 0 12.743-4.569 14.494-11.135.15-.564 15.55-56.365 60.506-56.365 34.206 0 60 29.898 60 69.545 0 46.861-39.885 81.82-105.964 139.738z" fill="url(#SVGID_1_)"/></g></g></svg>